<?xml version="1.0" encoding="utf-8"?>
<svg version="1.1" xmlns="http://www.w3.org/2000/svg" xmlns:xlink="http://www.w3.org/1999/xlink" x="0px" y="0px"
	 viewBox="0 0 750 500" style="enable-background:new 0 0 750 500;" xml:space="preserve">
<g id="Background_Simple">
	<g>
		<path style="fill:#7dd3fc;" d="M591.432,66.686c-71.715-9.338-112.469,30.438-208.843,34.763
			c-95.753-7.502-132.261-48.555-204.832-41.603C99.679,67.326,39.204,169.072,56.412,270.849S180.27,429.521,234.794,429.169
			c43.574-0.281,82.067-18.017,131.753-22.255c49.155,5.872,85.719,24.849,129.189,26.569
			c54.392,2.152,166.827-51.12,194.688-152.152C718.283,180.299,668.591,76.732,591.432,66.686z"/>
		<path style="opacity:0.7;fill:#FFFFFF;" d="M591.432,66.686c-71.715-9.338-112.469,30.438-208.843,34.763
			c-95.753-7.502-132.261-48.555-204.832-41.603C99.679,67.326,39.204,169.072,56.412,270.849S180.27,429.521,234.794,429.169
			c43.574-0.281,82.067-18.017,131.753-22.255c49.155,5.872,85.719,24.849,129.189,26.569
			c54.392,2.152,166.827-51.12,194.688-152.152C718.283,180.299,668.591,76.732,591.432,66.686z"/>
	</g>
</g>
<g id="Floor">
		<line style="fill:none;stroke:#263238;stroke-linecap:round;stroke-linejoin:round;stroke-miterlimit:10;" x1="36.799" y1="452.891" x2="736.251" y2="452.891"/>
</g>
<g id="Plants">
	<g style="opacity:0.15;">
		<path d="M203.883,79.617c-4.219,4.15-16.713,8.61-16.723,8.614c-0.129,0.046-0.44-9.128-0.393-9.709
			c0.542-6.726,5.545-19.403,12.901-21.134c5.299-1.246,10.03,2.724,10.708,7.902C211.068,70.58,207.475,76.081,203.883,79.617z"/>
		<path d="M196.32,247.816c0.059,0.303,0.117,0.584,0.175,0.883l-3.929,3.619c-0.217-1.207-0.434-2.433-0.65-3.698
			c-0.621-3.582-1.213-7.422-1.783-11.371c-0.95-0.012-6.354-0.115-11.387-0.845c-2.115,5.294-9.62,13.413-10.595,14.454
			c2.444,2.616,4.848,5.136,7.155,7.478c1.584,1.616,3.118,3.155,4.606,4.628l-4.684,1.792c-1.032-1.077-2.076-2.171-3.153-3.319
			c-2.494-2.645-5.107-5.522-7.76-8.501c-1.221,0.786-11.239,7.147-16.739,7.942c-4.988,0.718-11.543,0.249-15.335-3.504
			c-3.712-3.673-4.008-9.842,0.194-13.306c5.829-4.807,18.948-1.117,24.63,2.523c0.336,0.214,3.712,2.95,5.814,4.711
			c-1.078-1.223-2.138-2.398-3.232-3.671c-2.182-2.501-4.285-5.062-6.557-7.809c-1.051-1.365-2.113-2.744-3.185-4.136
			c-1.092-1.359-2.073-2.932-3.127-4.407c-2.372-3.473-4.605-7.106-6.775-10.816c-2.196,1.904-10.089,8.555-14.933,10.028
			c-4.822,1.467-11.371,1.996-15.687-1.139c-4.227-3.069-5.454-9.122-1.827-13.182c5.035-5.635,18.562-3.973,24.729-1.237
			c0.385,0.169,4.589,2.631,6.872,4.027c-1.286-2.24-2.581-4.47-3.809-6.779c-3.546-6.665-6.927-13.522-10.332-20.348
			c-1.042-2.092-2.105-4.162-3.161-6.24c-0.774,0.687-9.984,8.795-15.41,10.445c-4.821,1.468-11.372,1.996-15.688-1.14
			c-4.226-3.068-5.453-9.122-1.826-13.181c5.035-5.635,18.56-3.974,24.728-1.238c0.464,0.206,6.51,3.756,8.004,4.734
			c-2.328-4.576-4.69-9.112-7.201-13.49c-3.454-6.046-7.18-11.786-11.199-17.081c-0.359,0.32-9.935,8.826-15.491,10.517
			c-4.822,1.466-11.372,1.995-15.688-1.14c-4.226-3.069-5.454-9.122-1.826-13.182c5.035-5.635,18.56-3.973,24.729-1.238
			c0.483,0.215,6.986,4.038,8.116,4.815c-0.241-0.314-0.454-0.666-0.697-0.977c-4.363-5.598-9.292-10.474-14.131-14.811
			c-2.807-2.527-5.632-4.785-8.428-6.92c-1.621,1.768-9.118,9.762-13.951,11.836c-4.631,1.987-11.084,3.232-15.717,0.59
			c-4.538-2.586-6.423-8.467-3.264-12.901c4.386-6.154,18.012-5.988,24.444-3.946c0.349,0.111,3.779,1.634,6.261,2.778
			c-1.277-0.945-2.577-1.943-3.818-2.823c-4.653-3.317-9.119-6.067-13.094-8.471c-2.271-1.348-4.35-2.523-6.31-3.601
			c-2.494,0.904-12.596,4.422-17.746,4.043c-5.025-0.371-11.326-2.238-14.222-6.719c-2.835-4.388-1.797-10.477,3.049-12.954
			c6.727-3.441,18.746,2.984,23.512,7.761c0.411,0.414,6.112,7.609,5.983,7.657c0,0-0.121,0.045-0.151,0.056
			c1.906,0.999,3.936,2.094,6.131,3.334c4.036,2.322,8.573,4.981,13.316,8.21c4.749,3.214,9.818,6.839,14.813,11.139
			c5.012,4.304,10.063,9.087,14.632,14.689c0.052,0.063,0.097,0.136,0.149,0.199c-0.828-2.054-2.95-7.872-3.061-8.337
			c-1.581-6.559-0.782-20.164,5.668-24.103c4.646-2.836,10.379-0.54,12.638,4.17c2.306,4.81,0.608,11.156-1.704,15.636
			c-2.606,5.051-12.285,12.68-13.056,13.286c4.302,5.374,8.279,11.239,11.978,17.395c2.119,3.519,4.143,7.127,6.127,10.772
			c-0.658-1.799-1.234-3.412-1.289-3.646c-1.581-6.561-0.781-20.163,5.668-24.102c4.646-2.838,10.379-0.54,12.637,4.169
			c2.308,4.81,0.608,11.157-1.702,15.636c-2.345,4.544-10.466,11.216-12.639,12.952c0.746,1.406,1.508,2.802,2.248,4.211
			c3.557,6.759,7.075,13.519,10.732,20.043c1.286,2.301,2.638,4.518,3.983,6.741c-0.583-1.597-1.06-2.948-1.112-3.161
			c-1.581-6.561-0.782-20.164,5.666-24.103c4.648-2.837,10.381-0.541,12.64,4.17c2.307,4.808,0.607,11.157-1.704,15.635
			c-2.236,4.337-9.678,10.562-12.25,12.637c1.446,2.236,2.89,4.477,4.392,6.579c1.059,1.412,1.979,2.844,3.12,4.203
			c1.101,1.368,2.192,2.725,3.272,4.066c2.176,2.508,4.404,5.11,6.587,7.504c1.506,1.677,2.973,3.246,4.444,4.831
			c-1.307-2.275-3.774-6.781-3.938-7.18c-1.698-4.149-2.815-11.523-1.687-17.44c-0.255-0.611-0.455-1.241-0.591-1.891
			c-1.069-5.113,2.087-10.421,7.502-10.993c7.514-0.794,16.42,9.523,19.15,15.692c0.162,0.364,1.469,4.508,2.25,7.137
			c-0.223-1.615-0.46-3.18-0.671-4.845c-0.439-3.29-0.779-6.586-1.161-10.132c-0.124-1.718-0.247-3.453-0.373-5.207
			c-0.162-1.734-0.112-3.589-0.177-5.4c-0.062-4.204,0.079-8.468,0.317-12.759c-2.883,0.378-13.135,1.57-17.988,0.127
			c-4.831-1.436-10.585-4.61-12.456-9.604c-1.831-4.892,0.483-10.618,5.748-12.003c7.308-1.923,17.674,6.924,21.309,12.609
			c0.226,0.355,2.376,4.727,3.511,7.151c0.163-2.578,0.313-5.153,0.563-7.757c0.718-7.516,1.68-15.1,2.607-22.671
			c0.285-2.319,0.541-4.632,0.806-6.948c-1.025,0.145-13.181,1.826-18.616,0.21c-4.83-1.436-10.585-4.609-12.456-9.605
			c-1.831-4.891,0.483-10.617,5.749-12.001c7.308-1.923,17.673,6.924,21.309,12.609c0.273,0.429,3.357,6.724,4.063,8.363
			c0.582-5.098,1.115-10.186,1.437-15.223c0.453-6.948,0.514-13.791,0.082-20.424c-0.478,0.068-13.156,1.88-18.724,0.225
			c-4.831-1.436-10.585-4.609-12.455-9.605c-1.832-4.891,0.483-10.616,5.749-12.002c7.307-1.923,17.673,6.925,21.307,12.61
			c0.286,0.446,3.6,7.222,4.112,8.492c-0.026-0.394-0.009-0.805-0.04-1.198c-0.553-7.077-1.974-13.863-3.617-20.151
			c-0.947-3.655-2.058-7.095-3.212-10.419c-2.327,0.579-12.991,3.111-18.165,2.175c-4.961-0.898-11.028-3.419-13.436-8.178
			c-2.358-4.661-0.686-10.607,4.395-12.561c7.052-2.714,18.327,4.942,22.564,10.192c0.231,0.286,2.252,3.448,3.691,5.772
			c-0.545-1.492-1.077-3.043-1.628-4.461c-2.052-5.333-4.259-10.091-6.248-14.288c-1.151-2.379-2.238-4.505-3.277-6.484
			c-2.579-0.624-12.946-3.262-17.032-6.419c-3.988-3.082-8.211-8.115-8.155-13.448c0.055-5.224,4.28-9.729,9.688-9.124
			c7.51,0.842,13.988,12.832,15.331,19.445c0.114,0.571,0.899,9.717,0.765,9.688c0,0-0.126-0.03-0.155-0.038
			c1.038,1.884,2.128,3.918,3.274,6.163c2.085,4.162,4.402,8.884,6.577,14.194c2.188,5.3,4.416,11.121,6.209,17.463
			c1.805,6.354,3.382,13.131,4.101,20.324c0.008,0.081,0.006,0.167,0.013,0.249c0.443-2.169,1.885-8.193,2.048-8.644
			c2.299-6.343,10.472-17.248,18.023-16.976c5.44,0.198,8.956,5.276,8.241,10.45c-0.73,5.285-5.649,9.641-10.046,12.102
			c-4.961,2.776-17.242,3.8-18.22,3.877c0.622,6.857,0.705,13.943,0.393,21.118c-0.173,4.102-0.476,8.229-0.831,12.363
			c0.443-1.862,0.854-3.525,0.935-3.752c2.3-6.344,10.474-17.249,18.024-16.975c5.441,0.195,8.954,5.274,8.241,10.448
			c-0.727,5.283-5.648,9.643-10.046,12.102c-4.463,2.498-14.916,3.581-17.687,3.831c-0.153,1.585-0.288,3.168-0.448,4.751
			c-0.762,7.6-1.555,15.179-2.106,22.638c-0.196,2.628-0.291,5.223-0.397,7.821c0.395-1.655,0.742-3.044,0.817-3.252
			c2.3-6.343,10.472-17.249,18.024-16.975c5.441,0.197,8.955,5.275,8.241,10.449c-0.73,5.285-5.648,9.642-10.047,12.102
			c-4.259,2.384-13.898,3.47-17.189,3.783c-0.028,2.663-0.06,5.329,0.033,7.91c0.104,1.761,0.08,3.464,0.284,5.226
			c0.163,1.75,0.326,3.482,0.487,5.198c0.43,3.291,0.853,6.691,1.355,9.892c0.331,2.229,0.688,4.347,1.041,6.482
			c0.164-2.618,0.593-7.738,0.677-8.163c1.311-6.618,7.738-18.634,15.244-19.51c5.408-0.629,9.651,3.858,9.727,9.081
			c0.08,5.333-4.121,10.386-8.096,13.484c-4.377,3.411-15.879,6.225-17.318,6.567C195.074,241.163,195.688,244.59,196.32,247.816z"
			/>
		<path d="M79.628,130.283c-0.083,0.11-5.403-7.371-5.685-7.881c-3.257-5.909-6.077-19.242-0.897-24.745
			c3.731-3.963,9.868-3.261,13.289,0.686c3.495,4.028,3.533,10.6,2.487,15.53C87.595,119.662,79.633,130.275,79.628,130.283z"/>
	</g>
	<g style="opacity:0.15;">
		<path d="M486.868,105.876c4.219,4.15,16.712,8.611,16.723,8.614c0.129,0.046,0.44-9.128,0.393-9.709
			c-0.541-6.726-5.545-19.403-12.9-21.134c-5.299-1.246-10.03,2.724-10.708,7.902C479.684,96.84,483.277,102.34,486.868,105.876z"/>
		<path d="M494.432,274.076c-0.059,0.303-0.117,0.584-0.175,0.883l3.929,3.619c0.217-1.207,0.434-2.433,0.65-3.698
			c0.621-3.582,1.212-7.422,1.783-11.371c0.95-0.012,6.354-0.115,11.387-0.845c2.116,5.294,9.62,13.413,10.595,14.454
			c-2.444,2.616-4.848,5.136-7.155,7.478c-1.584,1.616-3.118,3.155-4.606,4.628l4.684,1.792c1.032-1.077,2.076-2.171,3.153-3.318
			c2.494-2.645,5.107-5.522,7.76-8.501c1.221,0.785,11.239,7.147,16.739,7.942c4.988,0.718,11.543,0.249,15.335-3.504
			c3.712-3.673,4.008-9.842-0.194-13.306c-5.829-4.807-18.948-1.117-24.63,2.523c-0.336,0.214-3.712,2.95-5.814,4.711
			c1.078-1.223,2.138-2.398,3.232-3.671c2.183-2.501,4.285-5.062,6.557-7.809c1.051-1.365,2.113-2.744,3.186-4.136
			c1.092-1.359,2.073-2.932,3.127-4.407c2.372-3.473,4.605-7.106,6.775-10.816c2.196,1.904,10.089,8.555,14.933,10.028
			c4.822,1.467,11.371,1.996,15.687-1.14c4.227-3.069,5.454-9.122,1.827-13.182c-5.035-5.635-18.562-3.973-24.729-1.237
			c-0.385,0.169-4.589,2.631-6.872,4.027c1.286-2.24,2.581-4.47,3.809-6.78c3.546-6.665,6.927-13.522,10.332-20.348
			c1.042-2.092,2.105-4.162,3.161-6.24c0.774,0.687,9.984,8.795,15.41,10.445c4.821,1.468,11.372,1.996,15.688-1.14
			c4.226-3.068,5.453-9.122,1.826-13.181c-5.035-5.635-18.561-3.974-24.728-1.238c-0.464,0.206-6.51,3.756-8.004,4.734
			c2.328-4.576,4.69-9.112,7.201-13.49c3.454-6.046,7.18-11.786,11.199-17.081c0.359,0.32,9.935,8.826,15.491,10.517
			c4.822,1.466,11.372,1.995,15.688-1.14c4.226-3.069,5.454-9.122,1.826-13.182c-5.035-5.635-18.56-3.973-24.729-1.238
			c-0.483,0.215-6.986,4.038-8.116,4.815c0.241-0.314,0.454-0.666,0.697-0.977c4.363-5.598,9.292-10.474,14.131-14.811
			c2.807-2.527,5.632-4.784,8.428-6.92c1.621,1.768,9.118,9.762,13.951,11.836c4.631,1.987,11.084,3.232,15.717,0.59
			c4.538-2.586,6.423-8.467,3.264-12.901c-4.386-6.154-18.012-5.988-24.444-3.946c-0.349,0.111-3.779,1.634-6.261,2.778
			c1.277-0.945,2.577-1.943,3.818-2.822c4.653-3.317,9.119-6.067,13.094-8.471c2.27-1.348,4.35-2.523,6.31-3.601
			c2.494,0.905,12.596,4.422,17.746,4.044c5.025-0.372,11.327-2.238,14.222-6.719c2.835-4.388,1.797-10.477-3.049-12.954
			c-6.727-3.441-18.746,2.984-23.512,7.761c-0.411,0.414-6.112,7.609-5.982,7.657c0,0,0.121,0.045,0.151,0.056
			c-1.906,0.999-3.936,2.094-6.131,3.334c-4.036,2.322-8.573,4.981-13.315,8.21c-4.75,3.214-9.818,6.839-14.813,11.139
			c-5.012,4.304-10.063,9.088-14.632,14.689c-0.052,0.063-0.097,0.136-0.149,0.199c0.828-2.054,2.95-7.872,3.061-8.337
			c1.581-6.559,0.782-20.164-5.668-24.103c-4.646-2.836-10.379-0.54-12.638,4.17c-2.306,4.81-0.608,11.156,1.704,15.636
			c2.606,5.051,12.285,12.68,13.056,13.286c-4.302,5.374-8.279,11.239-11.978,17.395c-2.119,3.519-4.143,7.127-6.127,10.772
			c0.658-1.799,1.234-3.412,1.289-3.646c1.581-6.561,0.781-20.163-5.668-24.102c-4.646-2.838-10.379-0.54-12.637,4.169
			c-2.308,4.81-0.608,11.157,1.702,15.636c2.345,4.544,10.466,11.216,12.639,12.952c-0.746,1.406-1.508,2.802-2.248,4.211
			c-3.557,6.759-7.075,13.519-10.732,20.043c-1.286,2.301-2.638,4.518-3.983,6.741c0.583-1.597,1.06-2.948,1.112-3.161
			c1.581-6.561,0.782-20.164-5.666-24.103c-4.648-2.837-10.381-0.541-12.64,4.17c-2.307,4.808-0.607,11.157,1.704,15.635
			c2.236,4.337,9.678,10.562,12.25,12.637c-1.446,2.236-2.89,4.478-4.392,6.579c-1.059,1.412-1.979,2.844-3.12,4.203
			c-1.101,1.368-2.192,2.724-3.272,4.066c-2.176,2.508-4.404,5.11-6.587,7.504c-1.506,1.677-2.973,3.246-4.444,4.831
			c1.307-2.275,3.774-6.781,3.938-7.181c1.698-4.149,2.815-11.523,1.687-17.44c0.255-0.611,0.455-1.241,0.591-1.891
			c1.069-5.113-2.087-10.421-7.502-10.993c-7.514-0.793-16.42,9.523-19.15,15.692c-0.161,0.364-1.469,4.508-2.25,7.137
			c0.223-1.615,0.461-3.18,0.671-4.845c0.439-3.29,0.779-6.586,1.161-10.132c0.124-1.718,0.247-3.453,0.373-5.207
			c0.162-1.734,0.112-3.589,0.177-5.4c0.062-4.204-0.079-8.468-0.317-12.759c2.883,0.378,13.135,1.57,17.988,0.127
			c4.831-1.436,10.585-4.61,12.456-9.604c1.831-4.892-0.483-10.618-5.748-12.003c-7.308-1.923-17.674,6.924-21.309,12.609
			c-0.226,0.355-2.376,4.727-3.511,7.151c-0.163-2.578-0.313-5.153-0.563-7.757c-0.718-7.516-1.68-15.1-2.607-22.671
			c-0.285-2.319-0.541-4.632-0.806-6.948c1.025,0.145,13.181,1.826,18.616,0.21c4.83-1.436,10.585-4.609,12.456-9.605
			c1.831-4.891-0.483-10.617-5.748-12.001c-7.308-1.923-17.673,6.924-21.309,12.609c-0.273,0.429-3.357,6.724-4.063,8.363
			c-0.582-5.098-1.115-10.186-1.437-15.223c-0.453-6.948-0.514-13.791-0.082-20.424c0.478,0.068,13.156,1.88,18.724,0.225
			c4.831-1.436,10.585-4.609,12.455-9.605c1.832-4.891-0.483-10.616-5.749-12.002c-7.307-1.923-17.673,6.925-21.308,12.61
			c-0.285,0.446-3.6,7.222-4.112,8.492c0.026-0.394,0.009-0.805,0.04-1.198c0.553-7.077,1.974-13.863,3.617-20.151
			c0.947-3.655,2.058-7.095,3.212-10.419c2.327,0.579,12.991,3.111,18.165,2.175c4.961-0.898,11.028-3.419,13.436-8.178
			c2.358-4.661,0.685-10.607-4.395-12.561c-7.052-2.714-18.327,4.942-22.564,10.192c-0.231,0.286-2.252,3.448-3.691,5.772
			c0.545-1.492,1.077-3.043,1.628-4.461c2.052-5.333,4.259-10.091,6.248-14.288c1.151-2.378,2.239-4.505,3.277-6.484
			c2.579-0.624,12.946-3.262,17.032-6.42c3.988-3.081,8.211-8.115,8.155-13.448c-0.055-5.224-4.28-9.729-9.688-9.124
			c-7.51,0.842-13.988,12.832-15.331,19.445c-0.114,0.571-0.899,9.717-0.765,9.688c0,0,0.126-0.031,0.155-0.038
			c-1.038,1.884-2.128,3.918-3.274,6.163c-2.085,4.162-4.402,8.884-6.577,14.194c-2.188,5.3-4.416,11.121-6.209,17.463
			c-1.805,6.354-3.382,13.131-4.101,20.323c-0.008,0.081-0.006,0.167-0.013,0.249c-0.443-2.169-1.885-8.193-2.048-8.643
			c-2.299-6.344-10.472-17.248-18.023-16.976c-5.44,0.198-8.956,5.276-8.241,10.45c0.73,5.285,5.649,9.641,10.045,12.102
			c4.961,2.776,17.242,3.8,18.22,3.877c-0.622,6.857-0.705,13.943-0.393,21.118c0.173,4.102,0.476,8.229,0.831,12.363
			c-0.443-1.863-0.854-3.525-0.935-3.752c-2.301-6.344-10.474-17.249-18.024-16.975c-5.441,0.195-8.954,5.274-8.241,10.448
			c0.727,5.284,5.648,9.643,10.046,12.102c4.463,2.498,14.916,3.581,17.687,3.831c0.153,1.585,0.288,3.168,0.448,4.751
			c0.762,7.6,1.555,15.179,2.106,22.638c0.196,2.628,0.291,5.224,0.397,7.821c-0.395-1.655-0.742-3.044-0.817-3.252
			c-2.3-6.343-10.472-17.249-18.024-16.975c-5.441,0.197-8.955,5.275-8.241,10.449c0.73,5.285,5.648,9.642,10.047,12.102
			c4.259,2.384,13.898,3.47,17.189,3.783c0.028,2.662,0.06,5.329-0.033,7.91c-0.104,1.761-0.079,3.464-0.284,5.226
			c-0.163,1.75-0.326,3.482-0.487,5.198c-0.43,3.291-0.853,6.691-1.355,9.892c-0.331,2.229-0.688,4.347-1.041,6.482
			c-0.164-2.618-0.593-7.738-0.677-8.163c-1.311-6.618-7.738-18.635-15.244-19.51c-5.408-0.629-9.651,3.858-9.728,9.081
			c-0.08,5.333,4.121,10.386,8.095,13.484c4.377,3.411,15.879,6.225,17.318,6.567C495.678,267.422,495.064,270.85,494.432,274.076z"
			/>
		<path d="M611.123,156.543c0.083,0.11,5.404-7.372,5.685-7.881c3.257-5.909,6.077-19.242,0.897-24.745
			c-3.731-3.963-9.868-3.261-13.289,0.686c-3.495,4.028-3.533,10.6-2.487,15.53C603.157,145.921,611.118,156.534,611.123,156.543z"
			/>
	</g>
</g>
<g id="Book_4">
	<g>
		<path style="fill:#0ea5e9;stroke:#263238;stroke-linecap:round;stroke-linejoin:round;stroke-miterlimit:10;" d="M495.192,431.262
			v-36.921c0-11.945,9.684-21.629,21.629-21.629H312.877c-11.945,0-21.629,9.684-21.629,21.629v36.921
			c0,11.945,9.684,21.629,21.629,21.629h203.944C504.875,452.891,495.192,443.207,495.192,431.262z"/>
		<g>
			<path style="fill:#949494;stroke:#263238;stroke-linecap:round;stroke-linejoin:round;stroke-miterlimit:10;" d="M698.425,375.64
				l2.433-1.597c0.601-0.395,0.322-1.33-0.398-1.33h-183.64c-11.945,0-21.629,9.684-21.629,21.629v36.921
				c0,11.945,9.684,21.629,21.629,21.629h183.64c0.719,0,0.999-0.935,0.398-1.33l-2.433-1.597V375.64z"/>
			<path style="fill:#FFFFFF;stroke:#263238;stroke-linecap:round;stroke-linejoin:round;stroke-miterlimit:10;" d="M527.637,375.64
				h170.788v74.324H527.637c-15.708,0-28.442-12.734-28.442-28.442v-17.44C499.195,388.373,511.929,375.64,527.637,375.64z"/>
			
				<line style="fill:none;stroke:#263238;stroke-linecap:round;stroke-linejoin:round;stroke-miterlimit:10;" x1="505.431" y1="389.319" x2="577.084" y2="389.319"/>
			
				<line style="fill:none;stroke:#263238;stroke-linecap:round;stroke-linejoin:round;stroke-miterlimit:10;" x1="558.271" y1="396.124" x2="625.12" y2="396.124"/>
			
				<line style="fill:none;stroke:#263238;stroke-linecap:round;stroke-linejoin:round;stroke-miterlimit:10;" x1="598.701" y1="404.53" x2="534.653" y2="404.53"/>
			
				<line style="fill:none;stroke:#263238;stroke-linecap:round;stroke-linejoin:round;stroke-miterlimit:10;" x1="507.032" y1="430.15" x2="549.064" y2="430.15"/>
			
				<line style="fill:none;stroke:#263238;stroke-linecap:round;stroke-linejoin:round;stroke-miterlimit:10;" x1="538.256" y1="436.154" x2="601.102" y2="436.154"/>
			
				<line style="fill:none;stroke:#263238;stroke-linecap:round;stroke-linejoin:round;stroke-miterlimit:10;" x1="530.65" y1="441.758" x2="547.462" y2="441.758"/>
			
				<line style="fill:none;stroke:#263238;stroke-linecap:round;stroke-linejoin:round;stroke-miterlimit:10;" x1="577.885" y1="424.545" x2="684.765" y2="424.545"/>
			
				<line style="fill:none;stroke:#263238;stroke-linecap:round;stroke-linejoin:round;stroke-miterlimit:10;" x1="697.174" y1="407.332" x2="675.157" y2="407.332"/>
			
				<line style="fill:none;stroke:#263238;stroke-linecap:round;stroke-linejoin:round;stroke-miterlimit:10;" x1="693.571" y1="401.728" x2="671.155" y2="401.728"/>
			
				<line style="fill:none;stroke:#263238;stroke-linecap:round;stroke-linejoin:round;stroke-miterlimit:10;" x1="693.571" y1="437.755" x2="637.529" y2="437.755"/>
		</g>
	</g>
</g>
<g id="Book_3">
	<g>
		<path style="fill:#0ea5e9;stroke:#263238;stroke-linecap:round;stroke-linejoin:round;stroke-miterlimit:10;" d="M485.569,350.699
			v-36.921c0-11.945,9.684-21.629,21.629-21.629H303.255c-11.945,0-21.629,9.684-21.629,21.629v36.921
			c0,11.945,9.684,21.629,21.629,21.629h203.944C495.253,372.328,485.569,362.644,485.569,350.699z"/>
		<g>
			<path style="fill:#949494;stroke:#263238;stroke-linecap:round;stroke-linejoin:round;stroke-miterlimit:10;" d="
				M688.803,295.076l2.433-1.597c0.601-0.395,0.322-1.33-0.397-1.33h-183.64c-11.945,0-21.629,9.684-21.629,21.629v36.921
				c0,11.945,9.684,21.629,21.629,21.629h183.64c0.719,0,0.999-0.935,0.397-1.33l-2.433-1.597V295.076z"/>
			<path style="fill:#FFFFFF;stroke:#263238;stroke-linecap:round;stroke-linejoin:round;stroke-miterlimit:10;" d="
				M518.015,295.076h170.788V369.4H518.015c-15.708,0-28.442-12.734-28.442-28.442v-17.44
				C489.573,307.81,502.307,295.076,518.015,295.076z"/>
			
				<line style="fill:none;stroke:#263238;stroke-linecap:round;stroke-linejoin:round;stroke-miterlimit:10;" x1="495.809" y1="308.756" x2="567.462" y2="308.756"/>
			
				<line style="fill:none;stroke:#263238;stroke-linecap:round;stroke-linejoin:round;stroke-miterlimit:10;" x1="548.648" y1="315.561" x2="615.498" y2="315.561"/>
			
				<line style="fill:none;stroke:#263238;stroke-linecap:round;stroke-linejoin:round;stroke-miterlimit:10;" x1="589.078" y1="323.967" x2="525.031" y2="323.967"/>
			
				<line style="fill:none;stroke:#263238;stroke-linecap:round;stroke-linejoin:round;stroke-miterlimit:10;" x1="497.41" y1="349.586" x2="539.441" y2="349.586"/>
			
				<line style="fill:none;stroke:#263238;stroke-linecap:round;stroke-linejoin:round;stroke-miterlimit:10;" x1="528.633" y1="355.591" x2="591.48" y2="355.591"/>
			
				<line style="fill:none;stroke:#263238;stroke-linecap:round;stroke-linejoin:round;stroke-miterlimit:10;" x1="521.028" y1="361.195" x2="537.84" y2="361.195"/>
			
				<line style="fill:none;stroke:#263238;stroke-linecap:round;stroke-linejoin:round;stroke-miterlimit:10;" x1="568.263" y1="343.982" x2="675.142" y2="343.982"/>
			
				<line style="fill:none;stroke:#263238;stroke-linecap:round;stroke-linejoin:round;stroke-miterlimit:10;" x1="687.552" y1="326.769" x2="665.535" y2="326.769"/>
			
				<line style="fill:none;stroke:#263238;stroke-linecap:round;stroke-linejoin:round;stroke-miterlimit:10;" x1="683.949" y1="321.165" x2="661.532" y2="321.165"/>
			
				<line style="fill:none;stroke:#263238;stroke-linecap:round;stroke-linejoin:round;stroke-miterlimit:10;" x1="683.949" y1="357.192" x2="627.907" y2="357.192"/>
		</g>
		<polygon style="fill:#263238;stroke:#263238;stroke-linecap:round;stroke-linejoin:round;stroke-miterlimit:10;" points="
			654.712,415.033 638.244,398.565 621.81,415.033 621.81,321.11 654.712,321.11 		"/>
	</g>
</g>
<g id="Book_2">
	<g>
		<path style="fill:#0ea5e9;stroke:#263238;stroke-linecap:round;stroke-linejoin:round;stroke-miterlimit:10;" d="M503.435,270.135
			v-36.921c0-11.945-9.684-21.629-21.629-21.629H685.75c11.945,0,21.629,9.684,21.629,21.629v36.921
			c0,11.945-9.684,21.629-21.629,21.629H481.806C493.751,291.764,503.435,282.081,503.435,270.135z"/>
		<g>
			<path style="fill:#949494;stroke:#263238;stroke-linecap:round;stroke-linejoin:round;stroke-miterlimit:10;" d="
				M300.202,214.513l-2.433-1.597c-0.601-0.395-0.322-1.33,0.397-1.33h183.64c11.945,0,21.629,9.684,21.629,21.629v36.921
				c0,11.945-9.684,21.629-21.629,21.629h-183.64c-0.719,0-0.999-0.935-0.397-1.33l2.433-1.597V214.513z"/>
			<path style="fill:#FFFFFF;stroke:#263238;stroke-linecap:round;stroke-linejoin:round;stroke-miterlimit:10;" d="M470.99,214.513
				H300.202v74.324H470.99c15.708,0,28.442-12.734,28.442-28.442v-17.44C499.431,227.247,486.698,214.513,470.99,214.513z"/>
			
				<line style="fill:none;stroke:#263238;stroke-linecap:round;stroke-linejoin:round;stroke-miterlimit:10;" x1="493.196" y1="228.193" x2="421.542" y2="228.193"/>
			
				<line style="fill:none;stroke:#263238;stroke-linecap:round;stroke-linejoin:round;stroke-miterlimit:10;" x1="440.356" y1="234.998" x2="373.507" y2="234.998"/>
			
				<line style="fill:none;stroke:#263238;stroke-linecap:round;stroke-linejoin:round;stroke-miterlimit:10;" x1="399.926" y1="243.404" x2="463.974" y2="243.404"/>
			
				<line style="fill:none;stroke:#263238;stroke-linecap:round;stroke-linejoin:round;stroke-miterlimit:10;" x1="491.594" y1="269.023" x2="449.563" y2="269.023"/>
			
				<line style="fill:none;stroke:#263238;stroke-linecap:round;stroke-linejoin:round;stroke-miterlimit:10;" x1="460.371" y1="275.028" x2="397.525" y2="275.028"/>
			
				<line style="fill:none;stroke:#263238;stroke-linecap:round;stroke-linejoin:round;stroke-miterlimit:10;" x1="467.977" y1="280.632" x2="451.164" y2="280.632"/>
			
				<line style="fill:none;stroke:#263238;stroke-linecap:round;stroke-linejoin:round;stroke-miterlimit:10;" x1="420.742" y1="263.419" x2="313.862" y2="263.419"/>
			
				<line style="fill:none;stroke:#263238;stroke-linecap:round;stroke-linejoin:round;stroke-miterlimit:10;" x1="301.453" y1="246.206" x2="323.469" y2="246.206"/>
			
				<line style="fill:none;stroke:#263238;stroke-linecap:round;stroke-linejoin:round;stroke-miterlimit:10;" x1="305.056" y1="240.602" x2="327.472" y2="240.602"/>
			
				<line style="fill:none;stroke:#263238;stroke-linecap:round;stroke-linejoin:round;stroke-miterlimit:10;" x1="305.056" y1="276.629" x2="361.097" y2="276.629"/>
		</g>
	</g>
</g>
<g id="Text">
	<g>
		<g>
			<path style="fill:#263238;" d="M527.935,264.92v-26.276h6.196c2.141,0,3.812,0.292,5.012,0.876
				c1.2,0.584,2.055,1.481,2.563,2.692c0.508,1.212,0.763,2.747,0.763,4.607v9.602c0,1.903-0.254,3.487-0.763,4.752
				c-0.508,1.265-1.352,2.206-2.53,2.822c-1.179,0.616-2.795,0.924-4.85,0.924H527.935z M532.736,261.579h1.46
				c1.103,0,1.892-0.195,2.368-0.584c0.476-0.389,0.767-0.957,0.876-1.703c0.108-0.746,0.162-1.66,0.162-2.741v-10.056
				c0-1.059-0.076-1.914-0.227-2.563c-0.151-0.648-0.465-1.124-0.94-1.427c-0.476-0.303-1.244-0.454-2.303-0.454h-1.395V261.579z"/>
			<path style="fill:#263238;" d="M546.133,264.92v-26.276h4.736v26.276H546.133z"/>
			<path style="fill:#263238;" d="M561.996,265.277c-1.925,0-3.433-0.378-4.525-1.135c-1.092-0.757-1.854-1.789-2.287-3.098
				c-0.433-1.308-0.649-2.817-0.649-4.526v-9.375c0-1.795,0.216-3.352,0.649-4.671c0.432-1.319,1.195-2.336,2.287-3.049
				c1.092-0.714,2.6-1.07,4.525-1.07c1.817,0,3.238,0.308,4.266,0.924c1.027,0.617,1.757,1.498,2.19,2.644
				c0.432,1.146,0.649,2.477,0.649,3.99v2.206h-4.606v-2.271c0-0.735-0.038-1.405-0.114-2.011c-0.076-0.605-0.281-1.087-0.616-1.444
				c-0.336-0.357-0.914-0.535-1.736-0.535c-0.822,0-1.422,0.19-1.801,0.568c-0.379,0.379-0.622,0.887-0.73,1.524
				c-0.108,0.638-0.162,1.358-0.162,2.157v11.419c0,0.952,0.076,1.736,0.227,2.352c0.151,0.616,0.427,1.082,0.827,1.395
				c0.4,0.314,0.946,0.47,1.638,0.47c0.8,0,1.367-0.189,1.703-0.568c0.335-0.378,0.546-0.881,0.632-1.508
				c0.086-0.627,0.13-1.33,0.13-2.109v-2.368h4.606v2.108c0,1.557-0.206,2.936-0.617,4.136c-0.411,1.2-1.13,2.141-2.157,2.822
				C565.299,264.937,563.856,265.277,561.996,265.277z"/>
			<path style="fill:#263238;" d="M575.069,264.92v-22.74h-4.185v-3.536h13.106v3.536h-4.12v22.74H575.069z"/>
			<path style="fill:#263238;" d="M586.519,264.92v-26.276h4.736v26.276H586.519z"/>
			<path style="fill:#263238;" d="M602.447,265.277c-1.86,0-3.341-0.346-4.444-1.038s-1.893-1.687-2.368-2.984
				c-0.476-1.298-0.714-2.833-0.714-4.606v-9.829c0-1.773,0.238-3.293,0.714-4.558c0.475-1.265,1.265-2.233,2.368-2.903
				c1.103-0.67,2.584-1.006,4.444-1.006c1.903,0,3.401,0.336,4.493,1.006c1.092,0.671,1.881,1.638,2.368,2.903
				c0.486,1.265,0.73,2.785,0.73,4.558v9.861c0,1.752-0.243,3.272-0.73,4.558c-0.487,1.287-1.276,2.282-2.368,2.984
				C605.848,264.925,604.35,265.277,602.447,265.277z M602.447,261.741c0.8,0,1.389-0.173,1.768-0.519
				c0.378-0.346,0.633-0.822,0.763-1.428c0.129-0.605,0.195-1.265,0.195-1.979v-12.1c0-0.735-0.065-1.395-0.195-1.979
				c-0.13-0.584-0.384-1.043-0.763-1.379c-0.379-0.335-0.968-0.503-1.768-0.503c-0.757,0-1.33,0.168-1.719,0.503
				c-0.389,0.336-0.649,0.795-0.779,1.379c-0.129,0.584-0.195,1.244-0.195,1.979v12.1c0,0.714,0.06,1.373,0.178,1.979
				c0.119,0.606,0.373,1.082,0.763,1.428C601.084,261.568,601.668,261.741,602.447,261.741z"/>
			<path style="fill:#263238;" d="M613.573,264.92v-26.276h3.342l6.391,14.987v-14.987h3.958v26.276h-3.179l-6.423-15.701v15.701
				H613.573z"/>
			<path style="fill:#263238;" d="M629.922,264.92l5.255-26.276h5.125l5.255,26.276h-4.444l-1.038-6.066h-4.574l-1.07,6.066H629.922
				z M635.989,255.805h3.568l-1.784-11.029L635.989,255.805z"/>
			<path style="fill:#263238;" d="M648.056,264.92v-26.276h6.293c1.773,0,3.271,0.211,4.493,0.632
				c1.221,0.422,2.152,1.141,2.79,2.157c0.638,1.017,0.957,2.401,0.957,4.152c0,1.06-0.097,2.011-0.292,2.854
				c-0.195,0.844-0.525,1.563-0.99,2.157c-0.465,0.595-1.108,1.054-1.93,1.379l3.666,12.943h-4.801l-3.179-12.035h-2.206v12.035
				H648.056z M652.857,249.869h1.492c0.93,0,1.671-0.135,2.222-0.406c0.551-0.27,0.946-0.702,1.184-1.297
				c0.237-0.595,0.357-1.357,0.357-2.287c0-1.319-0.244-2.308-0.73-2.968c-0.487-0.66-1.411-0.989-2.774-0.989h-1.752V249.869z"/>
			<path style="fill:#263238;" d="M669.595,264.92v-10.024l-5.32-16.252h4.477l3.244,10.413l3.049-10.413h4.38l-5.255,16.252v10.024
				H669.595z"/>
		</g>
		
			<rect x="528.289" y="273.059" style="fill:#263238;stroke:#263238;stroke-linecap:round;stroke-linejoin:round;stroke-miterlimit:10;" width="145.878" height="3.348"/>
		
			<rect x="528.289" y="228.1" style="fill:#263238;stroke:#263238;stroke-linecap:round;stroke-linejoin:round;stroke-miterlimit:10;" width="145.878" height="3.348"/>
	</g>
</g>
<g id="Book_1">
	<g>
		<path style="fill:#949494;stroke:#263238;stroke-linecap:round;stroke-linejoin:round;stroke-miterlimit:10;" d="M501.485,151.233
			c0-2.301-1.865-4.166-4.166-4.166h-310.6c-2.301,0-4.166,1.865-4.166,4.166c0,2.301,1.865,4.166,4.166,4.166h306.013
			l-22.384,288.999H284.685l-10.5-11.109l-14,11.109H132.296c-2.301,0-4.166,1.865-4.166,4.166c0,2.301,1.865,4.166,4.166,4.166
			h340.747c0.266,0.076,0.544,0.126,0.831,0.148l0,0c2.294,0.176,4.296-1.542,4.471-3.836l22.984-296.737
			C501.42,151.962,501.485,151.607,501.485,151.233z"/>
		<path style="fill:#FFFFFF;stroke:#263238;stroke-linecap:round;stroke-linejoin:round;stroke-miterlimit:10;" d="M275.156,437.537
			c1.656,0.662,4.879,6.249,6.794,9.802h192.612l-15.492-36.903c0,0-14.834-6.714-53.551-19.457
			c-38.717-12.742-63.221-17.153-89.196-11.762c-25.975,5.391-36.266,8.822-36.266,8.822s-8.822-7.351-35.776-7.841
			c-26.955-0.49-107.072,30.238-107.072,30.238l-5.648,36.903h135.296C269.349,443.201,273.493,436.872,275.156,437.537z"/>
		<path style="fill:#FFFFFF;stroke:#263238;stroke-linecap:round;stroke-linejoin:round;stroke-miterlimit:10;" d="M309.382,118.221
			L277.868,403.99c0,0,34.378-14.324,56.581-15.04c18.204-0.587,72.999,12.307,92.146,16.97c4.554,1.109,9.174,1.927,13.833,2.445
			l18.642,2.071l22.202-282.904c0,0-36.527-8.594-63.027-17.189C391.746,101.748,339.463,95.303,309.382,118.221z"/>
		<g>
			<path d="M435.473,139.253l2.432-17.968l3.788,1.293c1.254,0.429,2.271,0.942,3.049,1.541c0.777,0.598,1.316,1.317,1.617,2.154
				c0.299,0.837,0.373,1.825,0.219,2.964c-0.093,0.695-0.258,1.301-0.49,1.817c-0.232,0.516-0.545,0.912-0.939,1.187
				c-0.393,0.276-0.881,0.408-1.463,0.394l1.453,9.919l-2.534-0.865l-1.321-9.27l-2.046-0.699l-1.141,8.429L435.473,139.253z
				 M439.483,129.923l1,0.341c0.743,0.254,1.358,0.371,1.847,0.353c0.489-0.019,0.87-0.205,1.145-0.56
				c0.276-0.355,0.465-0.917,0.568-1.686c0.142-1.05,0.044-1.877-0.296-2.48c-0.34-0.604-1.106-1.109-2.299-1.516l-1.162-0.397
				L439.483,129.923z"/>
			<path d="M447.99,137.471l0.244-1.797l5.181,1.77l-0.244,1.796L447.99,137.471z"/>
			<path d="M457.058,146.625l2.18-16.104l-3.184-1.087l0.252-1.863l8.899,3.04l-0.252,1.863l-3.09-1.056l-2.18,16.104
				L457.058,146.625z"/>
		</g>
		<path style="fill:#FFFFFF;stroke:#263238;stroke-linecap:round;stroke-linejoin:round;stroke-miterlimit:10;" d="M309.382,118.221
			L277.868,403.99c0,0-22.187-14.324-39.34-15.04c-13.094-0.547-53.202,10.592-71.453,15.894
			c-6.373,1.852-12.872,3.234-19.445,4.146l-10.421,1.446l38.586-278.577c0,0,17.414-5.82,39.754-14.415
			C237.888,108.85,290.477,95.303,309.382,118.221z"/>
		<g>
			<path d="M190.841,143.082l1.938-14.312l3.26-0.978c1.08-0.324,1.956-0.465,2.629-0.424c0.672,0.042,1.14,0.291,1.405,0.749
				c0.264,0.456,0.335,1.139,0.213,2.047c-0.075,0.553-0.21,1.076-0.405,1.571c-0.195,0.493-0.46,0.94-0.796,1.34
				c-0.335,0.4-0.752,0.743-1.252,1.027l1.329,6.484l-2.181,0.654l-1.211-6.078l-1.76,0.527l-0.91,6.714L190.841,143.082z
				 M194.204,134.26l0.861-0.258c0.64-0.192,1.169-0.419,1.589-0.68c0.42-0.262,0.744-0.591,0.977-0.989
				c0.233-0.397,0.392-0.902,0.475-1.514c0.113-0.837,0.021-1.389-0.275-1.656c-0.296-0.267-0.958-0.246-1.985,0.062l-1,0.3
				L194.204,134.26z"/>
			<path d="M201.565,135.442l0.194-1.431l4.46-1.337l-0.194,1.431L201.565,135.442z"/>
			<path d="M209.422,137.512l1.737-12.827l-2.74,0.821l0.201-1.484l7.66-2.297l-0.201,1.484l-2.66,0.798l-1.737,12.827
				L209.422,137.512z"/>
		</g>
		<polygon style="fill:#FFFFFF;stroke:#263238;stroke-linecap:round;stroke-linejoin:round;stroke-miterlimit:10;" points="
			481.273,127.532 495.205,155.738 474.562,447.339 459.07,410.436 		"/>
		<path style="fill:none;stroke:#263238;stroke-linecap:round;stroke-linejoin:round;stroke-miterlimit:10;" d="M266.857,447.339
			c0,0-9.517-6.516-19.061-8.902c-9.544-2.386-36.745,0.954-62.992,3.341"/>
		<path style="fill:none;stroke:#263238;stroke-linecap:round;stroke-linejoin:round;stroke-miterlimit:10;" d="M267.361,440.823
			c0,0-10.021-8.113-22.906-9.067"/>
		<path style="fill:none;stroke:#263238;stroke-linecap:round;stroke-linejoin:round;stroke-miterlimit:10;" d="M271.656,436.051
			c0,0-15.748-12.885-35.314-12.885c-14.863,0-32.928,3.34-32.928,3.34"/>
		<path style="fill:none;stroke:#263238;stroke-linecap:round;stroke-linejoin:round;stroke-miterlimit:10;" d="M273.088,424.598
			c0,0-12.408-9.067-23.383-10.021c-10.976-0.954-24.815,1.432-24.815,1.432"/>
		<path style="fill:none;stroke:#263238;stroke-linecap:round;stroke-linejoin:round;stroke-miterlimit:10;" d="M274.042,413.145
			c0,0-9.067-8.113-21.475-10.022c-12.408-1.909-23.383,0-23.383,0"/>
		<path style="fill:none;stroke:#263238;stroke-linecap:round;stroke-linejoin:round;stroke-miterlimit:10;" d="M278.814,416.486
			c0,0,15.271-10.976,41.04-8.113"/>
		<path style="fill:none;stroke:#263238;stroke-linecap:round;stroke-linejoin:round;stroke-miterlimit:10;" d="M277.86,426.984
			c0,0,7.635-5.727,27.201-5.727"/>
		<path style="fill:none;stroke:#263238;stroke-linecap:round;stroke-linejoin:round;stroke-miterlimit:10;" d="M279.292,437.006
			c0,0,15.748-6.204,30.064-4.772c14.316,1.432,16.225,2.386,33.882,4.295"/>
		<path style="fill:none;stroke:#263238;stroke-linecap:round;stroke-linejoin:round;stroke-miterlimit:10;" d="M287.881,443.687
			c0,0,10.499-4.295,24.338-2.863"/>
		<path style="fill:none;stroke:#263238;stroke-linecap:round;stroke-linejoin:round;stroke-miterlimit:10;" d="M314.128,421.735
			c0,0,15.271,0.954,22.906,3.818"/>
		
			<line style="fill:none;stroke:#263238;stroke-linecap:round;stroke-linejoin:round;stroke-miterlimit:10;" x1="222.503" y1="404.078" x2="212.959" y2="406.464"/>
		
			<line style="fill:none;stroke:#263238;stroke-linecap:round;stroke-linejoin:round;stroke-miterlimit:10;" x1="197.688" y1="428.416" x2="190.53" y2="430.325"/>
		
			<line style="fill:none;stroke:#263238;stroke-linecap:round;stroke-linejoin:round;stroke-miterlimit:10;" x1="325.581" y1="409.805" x2="333.217" y2="411.236"/>
		<path style="fill:none;stroke:#263238;stroke-linecap:round;stroke-linejoin:round;stroke-miterlimit:10;" d="M437.249,439.392
			c0,0,20.52,1.432,28.156,1.432"/>
		
			<line style="fill:none;stroke:#263238;stroke-linecap:round;stroke-linejoin:round;stroke-miterlimit:10;" x1="465.405" y1="437.483" x2="457.292" y2="437.006"/>
		<path style="fill:none;stroke:#263238;stroke-linecap:round;stroke-linejoin:round;stroke-miterlimit:10;" d="M436.772,427.462
			c0,0,16.225,0.954,24.338,1.909"/>
		<path style="fill:none;stroke:#263238;stroke-linecap:round;stroke-linejoin:round;stroke-miterlimit:10;" d="M139.468,419.826
			c0,0,11.93-0.954,28.633-5.727"/>
		<path style="fill:none;stroke:#263238;stroke-linecap:round;stroke-linejoin:round;stroke-miterlimit:10;" d="M150.444,424.121
			c0,0,11.453-0.954,18.134-3.34"/>
		<path style="fill:none;stroke:#263238;stroke-linecap:round;stroke-linejoin:round;stroke-miterlimit:10;" d="M455.383,418.872
			c0,0-13.362,1.909-32.45-2.386c-19.089-4.295-32.928-5.727-32.928-5.727"/>
		
			<line style="fill:none;stroke:#263238;stroke-linecap:round;stroke-linejoin:round;stroke-miterlimit:10;" x1="414.82" y1="440.346" x2="427.705" y2="440.823"/>
		
			<line style="fill:none;stroke:#263238;stroke-linecap:round;stroke-linejoin:round;stroke-miterlimit:10;" x1="487.834" y1="144.474" x2="482.584" y2="212.238"/>
		
			<line style="fill:none;stroke:#263238;stroke-linecap:round;stroke-linejoin:round;stroke-miterlimit:10;" x1="490.697" y1="162.131" x2="488.311" y2="191.718"/>
		
			<line style="fill:none;stroke:#263238;stroke-linecap:round;stroke-linejoin:round;stroke-miterlimit:10;" x1="482.107" y1="273.322" x2="477.335" y2="335.837"/>
		
			<line style="fill:none;stroke:#263238;stroke-linecap:round;stroke-linejoin:round;stroke-miterlimit:10;" x1="474.949" y1="353.971" x2="470.177" y2="416.486"/>
		
			<line style="fill:none;stroke:#263238;stroke-linecap:round;stroke-linejoin:round;stroke-miterlimit:10;" x1="478.523" y1="266.164" x2="475.426" y2="306.727"/>
		
			<line style="fill:none;stroke:#263238;stroke-linecap:round;stroke-linejoin:round;stroke-miterlimit:10;" x1="474.705" y1="313.885" x2="471.608" y2="354.448"/>
		<g>
			<g>
				<path style="fill:none;stroke:#B2B2B2;stroke-linecap:round;stroke-linejoin:round;stroke-miterlimit:10;" d="M317.487,151.069
					c0,0,20.237-14.166,56.663-8.095"/>
				<path style="fill:none;stroke:#B2B2B2;stroke-linecap:round;stroke-linejoin:round;stroke-miterlimit:10;" d="M316.423,160.098
					c0,0,20.289-14.218,56.715-8.281"/>
				<path style="fill:none;stroke:#B2B2B2;stroke-linecap:round;stroke-linejoin:round;stroke-miterlimit:10;" d="M315.359,169.126
					c0,0,20.34-14.27,56.767-8.467"/>
				<path style="fill:none;stroke:#B2B2B2;stroke-linecap:round;stroke-linejoin:round;stroke-miterlimit:10;" d="M314.295,178.155
					c0,0,20.392-14.321,56.819-8.653"/>
				<path style="fill:none;stroke:#B2B2B2;stroke-linecap:round;stroke-linejoin:round;stroke-miterlimit:10;" d="M313.232,187.184
					c0,0,20.444-14.373,56.87-8.839"/>
				<path style="fill:none;stroke:#B2B2B2;stroke-linecap:round;stroke-linejoin:round;stroke-miterlimit:10;" d="M312.168,196.212
					c0,0,20.496-14.425,56.922-9.025"/>
				<path style="fill:none;stroke:#B2B2B2;stroke-linecap:round;stroke-linejoin:round;stroke-miterlimit:10;" d="M311.104,205.241
					c0,0,20.548-14.477,56.974-9.211"/>
				<path style="fill:none;stroke:#B2B2B2;stroke-linecap:round;stroke-linejoin:round;stroke-miterlimit:10;" d="M310.04,214.27
					c0,0,20.6-14.529,57.026-9.397"/>
				<path style="fill:none;stroke:#B2B2B2;stroke-linecap:round;stroke-linejoin:round;stroke-miterlimit:10;" d="M308.977,223.298
					c0,0,20.652-14.581,57.078-9.583"/>
				<path style="fill:none;stroke:#B2B2B2;stroke-linecap:round;stroke-linejoin:round;stroke-miterlimit:10;" d="M307.913,232.327
					c0,0,20.704-14.633,57.13-9.769"/>
				<path style="fill:none;stroke:#B2B2B2;stroke-linecap:round;stroke-linejoin:round;stroke-miterlimit:10;" d="M306.849,241.356
					c0,0,20.756-14.685,57.182-9.955"/>
				<path style="fill:none;stroke:#B2B2B2;stroke-linecap:round;stroke-linejoin:round;stroke-miterlimit:10;" d="M305.785,250.385
					c0,0,20.807-14.736,57.234-10.141"/>
				<path style="fill:none;stroke:#B2B2B2;stroke-linecap:round;stroke-linejoin:round;stroke-miterlimit:10;" d="M304.722,259.413
					c0,0,20.859-14.788,57.285-10.327"/>
				<path style="fill:none;stroke:#B2B2B2;stroke-linecap:round;stroke-linejoin:round;stroke-miterlimit:10;" d="M303.658,268.442
					c0,0,20.911-14.84,57.337-10.513"/>
				<path style="fill:none;stroke:#B2B2B2;stroke-linecap:round;stroke-linejoin:round;stroke-miterlimit:10;" d="M302.594,277.471
					c0,0,20.963-14.892,57.389-10.699"/>
				<path style="fill:none;stroke:#B2B2B2;stroke-linecap:round;stroke-linejoin:round;stroke-miterlimit:10;" d="M301.531,286.499
					c0,0,21.015-14.944,57.441-10.885"/>
				<path style="fill:none;stroke:#B2B2B2;stroke-linecap:round;stroke-linejoin:round;stroke-miterlimit:10;" d="M300.467,295.528
					c0,0,21.067-14.996,57.493-11.071"/>
				<path style="fill:none;stroke:#B2B2B2;stroke-linecap:round;stroke-linejoin:round;stroke-miterlimit:10;" d="M299.403,304.557
					c0,0,21.119-15.048,57.545-11.257"/>
				<path style="fill:none;stroke:#B2B2B2;stroke-linecap:round;stroke-linejoin:round;stroke-miterlimit:10;" d="M298.339,313.585
					c0,0,21.171-15.1,57.597-11.443"/>
				<path style="fill:none;stroke:#B2B2B2;stroke-linecap:round;stroke-linejoin:round;stroke-miterlimit:10;" d="M297.276,322.614
					c0,0,21.223-15.152,57.649-11.629"/>
				<path style="fill:none;stroke:#B2B2B2;stroke-linecap:round;stroke-linejoin:round;stroke-miterlimit:10;" d="M296.212,331.643
					c0,0,21.275-15.203,57.701-11.815"/>
				<path style="fill:none;stroke:#B2B2B2;stroke-linecap:round;stroke-linejoin:round;stroke-miterlimit:10;" d="M295.148,340.672
					c0,0,21.326-15.255,57.753-12.001"/>
				<path style="fill:none;stroke:#B2B2B2;stroke-linecap:round;stroke-linejoin:round;stroke-miterlimit:10;" d="M294.085,349.7
					c0,0,21.378-15.307,57.804-12.187"/>
				<path style="fill:none;stroke:#B2B2B2;stroke-linecap:round;stroke-linejoin:round;stroke-miterlimit:10;" d="M293.021,358.729
					c0,0,21.43-15.359,57.856-12.373"/>
				<path style="fill:none;stroke:#B2B2B2;stroke-linecap:round;stroke-linejoin:round;stroke-miterlimit:10;" d="M291.957,367.758
					c0,0,21.482-15.411,57.908-12.559"/>
				<path style="fill:none;stroke:#B2B2B2;stroke-linecap:round;stroke-linejoin:round;stroke-miterlimit:10;" d="M290.893,376.786
					c0,0,21.534-15.463,57.96-12.745"/>
				<path style="fill:none;stroke:#B2B2B2;stroke-linecap:round;stroke-linejoin:round;stroke-miterlimit:10;" d="M289.83,385.815
					c0,0,21.586-15.515,58.012-12.931"/>
			</g>
			<g>
				<path style="fill:none;stroke:#B2B2B2;stroke-linecap:round;stroke-linejoin:round;stroke-miterlimit:10;" d="M391.013,144.323
					c0,0,28.332-4.047,68.13,16.864"/>
				<path style="fill:none;stroke:#B2B2B2;stroke-linecap:round;stroke-linejoin:round;stroke-miterlimit:10;" d="M390.027,153.248
					c0,0,28.773-3.814,68.26,16.812"/>
				<path style="fill:none;stroke:#B2B2B2;stroke-linecap:round;stroke-linejoin:round;stroke-miterlimit:10;" d="M389.042,162.173
					c0,0,29.214-3.58,68.39,16.76"/>
				<path style="fill:none;stroke:#B2B2B2;stroke-linecap:round;stroke-linejoin:round;stroke-miterlimit:10;" d="M388.056,171.098
					c0,0,29.655-3.347,68.519,16.708"/>
				<path style="fill:none;stroke:#B2B2B2;stroke-linecap:round;stroke-linejoin:round;stroke-miterlimit:10;" d="M387.07,180.023
					c0,0,30.096-3.113,68.649,16.656"/>
				<path style="fill:none;stroke:#B2B2B2;stroke-linecap:round;stroke-linejoin:round;stroke-miterlimit:10;" d="M386.084,188.948
					c0,0,30.537-2.88,68.779,16.604"/>
				<path style="fill:none;stroke:#B2B2B2;stroke-linecap:round;stroke-linejoin:round;stroke-miterlimit:10;" d="M385.098,197.873
					c0,0,30.978-2.646,68.909,16.553"/>
				<path style="fill:none;stroke:#B2B2B2;stroke-linecap:round;stroke-linejoin:round;stroke-miterlimit:10;" d="M384.112,206.798
					c0,0,31.419-2.413,69.038,16.501"/>
				<path style="fill:none;stroke:#B2B2B2;stroke-linecap:round;stroke-linejoin:round;stroke-miterlimit:10;" d="M383.126,215.723
					c0,0,31.86-2.179,69.168,16.449"/>
				<path style="fill:none;stroke:#B2B2B2;stroke-linecap:round;stroke-linejoin:round;stroke-miterlimit:10;" d="M382.14,224.648
					c0,0,32.301-1.946,69.298,16.397"/>
				<path style="fill:none;stroke:#B2B2B2;stroke-linecap:round;stroke-linejoin:round;stroke-miterlimit:10;" d="M381.154,233.572
					c0,0,32.742-1.712,69.428,16.345"/>
				<path style="fill:none;stroke:#B2B2B2;stroke-linecap:round;stroke-linejoin:round;stroke-miterlimit:10;" d="M380.168,242.497
					c0,0,33.183-1.479,69.557,16.293"/>
				<path style="fill:none;stroke:#B2B2B2;stroke-linecap:round;stroke-linejoin:round;stroke-miterlimit:10;" d="M379.182,251.422
					c0,0,33.624-1.245,69.687,16.241"/>
				<path style="fill:none;stroke:#B2B2B2;stroke-linecap:round;stroke-linejoin:round;stroke-miterlimit:10;" d="M378.197,260.347
					c0,0,34.065-1.012,69.817,16.189"/>
				<path style="fill:none;stroke:#B2B2B2;stroke-linecap:round;stroke-linejoin:round;stroke-miterlimit:10;" d="M377.211,269.272
					c0,0,34.506-0.778,69.946,16.138"/>
				<path style="fill:none;stroke:#B2B2B2;stroke-linecap:round;stroke-linejoin:round;stroke-miterlimit:10;" d="M376.225,278.197
					c0,0,34.947-0.545,70.076,16.086"/>
				<path style="fill:none;stroke:#B2B2B2;stroke-linecap:round;stroke-linejoin:round;stroke-miterlimit:10;" d="M375.239,287.122
					c0,0,35.388-0.311,70.206,16.034"/>
				<path style="fill:none;stroke:#B2B2B2;stroke-linecap:round;stroke-linejoin:round;stroke-miterlimit:10;" d="M374.253,296.047
					c0,0,35.829-0.078,70.336,15.982"/>
				<path style="fill:none;stroke:#B2B2B2;stroke-linecap:round;stroke-linejoin:round;stroke-miterlimit:10;" d="M373.267,304.972
					c0,0,36.27,0.156,70.465,15.93"/>
				<path style="fill:none;stroke:#B2B2B2;stroke-linecap:round;stroke-linejoin:round;stroke-miterlimit:10;" d="M372.281,313.897
					c0,0,36.712,0.389,70.595,15.878"/>
				<path style="fill:none;stroke:#B2B2B2;stroke-linecap:round;stroke-linejoin:round;stroke-miterlimit:10;" d="M371.295,322.822
					c0,0,37.153,0.623,70.725,15.826"/>
				<path style="fill:none;stroke:#B2B2B2;stroke-linecap:round;stroke-linejoin:round;stroke-miterlimit:10;" d="M370.31,331.747
					c0,0,37.594,0.856,70.854,15.774"/>
				<path style="fill:none;stroke:#B2B2B2;stroke-linecap:round;stroke-linejoin:round;stroke-miterlimit:10;" d="M369.324,340.672
					c0,0,38.035,1.09,70.984,15.722"/>
				<path style="fill:none;stroke:#B2B2B2;stroke-linecap:round;stroke-linejoin:round;stroke-miterlimit:10;" d="M368.338,349.596
					c0,0,38.476,1.323,71.114,15.671"/>
				<path style="fill:none;stroke:#B2B2B2;stroke-linecap:round;stroke-linejoin:round;stroke-miterlimit:10;" d="M367.352,358.521
					c0,0,38.917,1.557,71.244,15.619"/>
				<path style="fill:none;stroke:#B2B2B2;stroke-linecap:round;stroke-linejoin:round;stroke-miterlimit:10;" d="M366.366,367.446
					c0,0,39.358,1.79,71.373,15.567"/>
				<path style="fill:none;stroke:#B2B2B2;stroke-linecap:round;stroke-linejoin:round;stroke-miterlimit:10;" d="M365.38,376.371
					c0,0,39.799,2.024,71.503,15.515"/>
			</g>
			<g>
				<path style="fill:none;stroke:#B2B2B2;stroke-linecap:round;stroke-linejoin:round;stroke-miterlimit:10;" d="M186.72,155.399
					c0,0,10.021-11.75,42.4-12.425"/>
				<path style="fill:none;stroke:#B2B2B2;stroke-linecap:round;stroke-linejoin:round;stroke-miterlimit:10;" d="M185.496,164.365
					c0.004-0.005,10.025-11.584,42.455-12.466"/>
				<path style="fill:none;stroke:#B2B2B2;stroke-linecap:round;stroke-linejoin:round;stroke-miterlimit:10;" d="M184.273,173.331
					c0.008-0.01,10.029-11.417,42.511-12.507"/>
				<path style="fill:none;stroke:#B2B2B2;stroke-linecap:round;stroke-linejoin:round;stroke-miterlimit:10;" d="M183.05,182.297
					c0.012-0.015,10.032-11.251,42.567-12.548"/>
				<path style="fill:none;stroke:#B2B2B2;stroke-linecap:round;stroke-linejoin:round;stroke-miterlimit:10;" d="M181.827,191.263
					c0.016-0.02,10.036-11.084,42.622-12.589"/>
				<path style="fill:none;stroke:#B2B2B2;stroke-linecap:round;stroke-linejoin:round;stroke-miterlimit:10;" d="M180.604,200.229
					c0.019-0.025,10.04-10.917,42.678-12.63"/>
				<path style="fill:none;stroke:#B2B2B2;stroke-linecap:round;stroke-linejoin:round;stroke-miterlimit:10;" d="M179.381,209.195
					c0.023-0.03,10.044-10.751,42.734-12.671"/>
				<path style="fill:none;stroke:#B2B2B2;stroke-linecap:round;stroke-linejoin:round;stroke-miterlimit:10;" d="M178.158,218.161
					c0.027-0.035,10.047-10.585,42.789-12.712"/>
				<path style="fill:none;stroke:#B2B2B2;stroke-linecap:round;stroke-linejoin:round;stroke-miterlimit:10;" d="M176.935,227.126
					c0.031-0.04,10.051-10.418,42.845-12.753"/>
				<path style="fill:none;stroke:#B2B2B2;stroke-linecap:round;stroke-linejoin:round;stroke-miterlimit:10;" d="M175.711,236.092
					c0.035-0.045,10.055-10.251,42.901-12.794"/>
				<path style="fill:none;stroke:#B2B2B2;stroke-linecap:round;stroke-linejoin:round;stroke-miterlimit:10;" d="M174.488,245.058
					c0.039-0.05,10.058-10.085,42.956-12.835"/>
				<path style="fill:none;stroke:#B2B2B2;stroke-linecap:round;stroke-linejoin:round;stroke-miterlimit:10;" d="M173.265,254.024
					c0.043-0.055,10.062-9.918,43.012-12.876"/>
				<path style="fill:none;stroke:#B2B2B2;stroke-linecap:round;stroke-linejoin:round;stroke-miterlimit:10;" d="M172.042,262.99
					c0.047-0.06,10.066-9.752,43.067-12.917"/>
				<path style="fill:none;stroke:#B2B2B2;stroke-linecap:round;stroke-linejoin:round;stroke-miterlimit:10;" d="M170.819,271.956
					c0.051-0.065,10.07-9.585,43.123-12.958"/>
				<path style="fill:none;stroke:#B2B2B2;stroke-linecap:round;stroke-linejoin:round;stroke-miterlimit:10;" d="M169.596,280.922
					c0.055-0.07,10.073-9.419,43.179-12.999"/>
				<path style="fill:none;stroke:#B2B2B2;stroke-linecap:round;stroke-linejoin:round;stroke-miterlimit:10;" d="M168.373,289.888
					c0.058-0.075,10.077-9.252,43.234-13.04"/>
				<path style="fill:none;stroke:#B2B2B2;stroke-linecap:round;stroke-linejoin:round;stroke-miterlimit:10;" d="M167.149,298.854
					c0.062-0.08,10.081-9.086,43.29-13.081"/>
				<path style="fill:none;stroke:#B2B2B2;stroke-linecap:round;stroke-linejoin:round;stroke-miterlimit:10;" d="M165.926,307.82
					c0.066-0.085,10.085-8.919,43.346-13.122"/>
				<path style="fill:none;stroke:#B2B2B2;stroke-linecap:round;stroke-linejoin:round;stroke-miterlimit:10;" d="M164.703,316.786
					c0.07-0.09,10.088-8.753,43.401-13.163"/>
				<path style="fill:none;stroke:#B2B2B2;stroke-linecap:round;stroke-linejoin:round;stroke-miterlimit:10;" d="M163.48,325.752
					c0.074-0.095,10.092-8.586,43.457-13.204"/>
				<path style="fill:none;stroke:#B2B2B2;stroke-linecap:round;stroke-linejoin:round;stroke-miterlimit:10;" d="M162.257,334.718
					c0.078-0.1,10.096-8.419,43.512-13.245"/>
				<path style="fill:none;stroke:#B2B2B2;stroke-linecap:round;stroke-linejoin:round;stroke-miterlimit:10;" d="M161.034,343.684
					c0.082-0.105,10.1-8.253,43.568-13.286"/>
				<path style="fill:none;stroke:#B2B2B2;stroke-linecap:round;stroke-linejoin:round;stroke-miterlimit:10;" d="M159.811,352.65
					c0.086-0.111,10.103-8.086,43.624-13.327"/>
				<path style="fill:none;stroke:#B2B2B2;stroke-linecap:round;stroke-linejoin:round;stroke-miterlimit:10;" d="M158.587,361.615
					c0.09-0.115,10.107-7.92,43.679-13.368"/>
				<path style="fill:none;stroke:#B2B2B2;stroke-linecap:round;stroke-linejoin:round;stroke-miterlimit:10;" d="M157.364,370.581
					c0.094-0.121,10.111-7.753,43.735-13.409"/>
				<path style="fill:none;stroke:#B2B2B2;stroke-linecap:round;stroke-linejoin:round;stroke-miterlimit:10;" d="M156.141,379.547
					c0.097-0.126,10.115-7.587,43.791-13.45"/>
				<path style="fill:none;stroke:#B2B2B2;stroke-linecap:round;stroke-linejoin:round;stroke-miterlimit:10;" d="M154.918,388.513
					c0.101-0.131,10.118-7.42,43.846-13.491"/>
			</g>
			<g>
				<path style="fill:none;stroke:#B2B2B2;stroke-linecap:round;stroke-linejoin:round;stroke-miterlimit:10;" d="M241.936,140.276
					c0,0,24.372-8.769,47.219,6.746"/>
				<path style="fill:none;stroke:#B2B2B2;stroke-linecap:round;stroke-linejoin:round;stroke-miterlimit:10;" d="M240.82,149.175
					c0,0,24.291-8.717,47.427,6.642"/>
				<path style="fill:none;stroke:#B2B2B2;stroke-linecap:round;stroke-linejoin:round;stroke-miterlimit:10;" d="M239.705,158.074
					c0,0,24.21-8.666,47.634,6.538"/>
				<path style="fill:none;stroke:#B2B2B2;stroke-linecap:round;stroke-linejoin:round;stroke-miterlimit:10;" d="M238.589,166.973
					c0,0,24.128-8.613,47.842,6.434"/>
				<path style="fill:none;stroke:#B2B2B2;stroke-linecap:round;stroke-linejoin:round;stroke-miterlimit:10;" d="M237.474,175.872
					c0,0,24.047-8.562,48.049,6.33"/>
				<path style="fill:none;stroke:#B2B2B2;stroke-linecap:round;stroke-linejoin:round;stroke-miterlimit:10;" d="M236.358,184.771
					c0,0,23.966-8.51,48.257,6.227"/>
				<path style="fill:none;stroke:#B2B2B2;stroke-linecap:round;stroke-linejoin:round;stroke-miterlimit:10;" d="M235.242,193.67
					c0,0,23.885-8.458,48.464,6.123"/>
				<path style="fill:none;stroke:#B2B2B2;stroke-linecap:round;stroke-linejoin:round;stroke-miterlimit:10;" d="M234.127,202.569
					c0,0,23.804-8.406,48.672,6.019"/>
				<path style="fill:none;stroke:#B2B2B2;stroke-linecap:round;stroke-linejoin:round;stroke-miterlimit:10;" d="M233.011,211.468
					c0,0,23.722-8.354,48.88,5.915"/>
				<path style="fill:none;stroke:#B2B2B2;stroke-linecap:round;stroke-linejoin:round;stroke-miterlimit:10;" d="M231.895,220.367
					c0,0,23.641-8.302,49.087,5.811"/>
				<path style="fill:none;stroke:#B2B2B2;stroke-linecap:round;stroke-linejoin:round;stroke-miterlimit:10;" d="M230.78,229.266
					c0,0,23.56-8.25,49.295,5.708"/>
				<path style="fill:none;stroke:#B2B2B2;stroke-linecap:round;stroke-linejoin:round;stroke-miterlimit:10;" d="M229.664,238.165
					c0,0,23.479-8.199,49.502,5.604"/>
				<path style="fill:none;stroke:#B2B2B2;stroke-linecap:round;stroke-linejoin:round;stroke-miterlimit:10;" d="M228.549,247.064
					c0,0,23.397-8.147,49.71,5.5"/>
				<path style="fill:none;stroke:#B2B2B2;stroke-linecap:round;stroke-linejoin:round;stroke-miterlimit:10;" d="M227.433,255.963
					c0,0,23.316-8.095,49.917,5.396"/>
				<path style="fill:none;stroke:#B2B2B2;stroke-linecap:round;stroke-linejoin:round;stroke-miterlimit:10;" d="M226.317,264.862
					c0,0,23.235-8.043,50.125,5.293"/>
				<path style="fill:none;stroke:#B2B2B2;stroke-linecap:round;stroke-linejoin:round;stroke-miterlimit:10;" d="M225.202,273.761
					c0,0,23.154-7.991,50.332,5.189"/>
				<path style="fill:none;stroke:#B2B2B2;stroke-linecap:round;stroke-linejoin:round;stroke-miterlimit:10;" d="M224.086,282.659
					c0,0,23.073-7.939,50.54,5.085"/>
				<path style="fill:none;stroke:#B2B2B2;stroke-linecap:round;stroke-linejoin:round;stroke-miterlimit:10;" d="M222.971,291.559
					c0,0,22.991-7.887,50.748,4.981"/>
				<path style="fill:none;stroke:#B2B2B2;stroke-linecap:round;stroke-linejoin:round;stroke-miterlimit:10;" d="M221.855,300.457
					c0,0,22.91-7.835,50.955,4.878"/>
				<path style="fill:none;stroke:#B2B2B2;stroke-linecap:round;stroke-linejoin:round;stroke-miterlimit:10;" d="M220.739,309.357
					c0,0,22.829-7.783,51.163,4.774"/>
				<path style="fill:none;stroke:#B2B2B2;stroke-linecap:round;stroke-linejoin:round;stroke-miterlimit:10;" d="M219.624,318.255
					c0,0,22.748-7.731,51.37,4.67"/>
				<path style="fill:none;stroke:#B2B2B2;stroke-linecap:round;stroke-linejoin:round;stroke-miterlimit:10;" d="M218.508,327.154
					c0,0,22.667-7.68,51.578,4.566"/>
				<path style="fill:none;stroke:#B2B2B2;stroke-linecap:round;stroke-linejoin:round;stroke-miterlimit:10;" d="M217.393,336.053
					c0,0,22.585-7.628,51.785,4.462"/>
				<path style="fill:none;stroke:#B2B2B2;stroke-linecap:round;stroke-linejoin:round;stroke-miterlimit:10;" d="M216.277,344.952
					c0,0,22.504-7.576,51.993,4.359"/>
				<path style="fill:none;stroke:#B2B2B2;stroke-linecap:round;stroke-linejoin:round;stroke-miterlimit:10;" d="M215.161,353.851
					c0,0,22.423-7.524,52.2,4.255"/>
				<path style="fill:none;stroke:#B2B2B2;stroke-linecap:round;stroke-linejoin:round;stroke-miterlimit:10;" d="M214.046,362.75
					c0,0,22.342-7.472,52.408,4.151"/>
				<path style="fill:none;stroke:#B2B2B2;stroke-linecap:round;stroke-linejoin:round;stroke-miterlimit:10;" d="M212.93,371.649
					c0,0,22.26-7.42,52.616,4.047"/>
			</g>
		</g>
		<path style="fill:#263238;stroke:#263238;stroke-linecap:round;stroke-linejoin:round;stroke-miterlimit:10;" d="M316.594,113.172
			l-13.93,127.202l12.464-17.596l9.531,10.264l13.197-127.569C337.855,105.474,326.125,106.207,316.594,113.172z"/>
	</g>
</g>
<g id="Character">
	<g>
		<path style="fill:#263238;stroke:#263238;stroke-linecap:round;stroke-linejoin:round;stroke-miterlimit:10;" d="M84.813,455.697
			c0,0-1.284,0.481-0.16,1.604s5.616,1.925,9.627,1.604c4.011-0.321,8.504-2.086,10.108-2.728c1.604-0.642,0.481-4.171,0.481-4.171
			L84.813,455.697z"/>
		<path style="fill:#FFFFFF;stroke:#263238;stroke-linecap:round;stroke-linejoin:round;stroke-miterlimit:10;" d="M92.033,426.534
			c0,0,2.407,17.771,2.407,18.574c0,0.802-6.257,7.862-9.306,9.466c-3.049,1.604,4.813,3.048,8.183,2.728s8.343-1.284,9.306-1.925
			c0.963-0.642,2.086-1.123,2.246-3.369c0.161-2.246-1.123-9.145-1.123-9.145l0.283-16.92L92.033,426.534z"/>
		<g>
			<path style="fill:#263238;" d="M103.79,443.102c-4.029,0.891-7.412,0.634-9.547,0.257c0.122,0.961,0.198,1.609,0.198,1.75
				c0,0.27-0.719,1.257-1.777,2.5c1.591-0.285,4.821-0.589,6.879,1.092c1.532,1.253,2.184,3.469,1.938,6.586
				c-0.014,0.184,0.019,0.359,0.084,0.518c0.487-0.151,0.861-0.296,1.059-0.428c0.393-0.262,0.81-0.504,1.181-0.844
				c0.096-3.436-0.841-6.003-2.818-7.614c-0.464-0.378-0.962-0.683-1.478-0.928c1.43-0.064,2.999-0.254,4.67-0.62
				C104.009,444.33,103.86,443.489,103.79,443.102z"/>
			<path style="fill:#263238;" d="M98.318,450.559c-1.954-1.381-4.563-1.679-6.86-1.59c-0.778,0.849-1.638,1.734-2.501,2.559
				c2.437-0.407,5.954-0.57,8.037,0.903c1.195,0.846,1.822,2.143,1.916,3.967c0.001,0.018,0.006,0.034,0.008,0.052
				c0.844-0.172,1.617-0.352,2.248-0.528C100.964,453.565,100.013,451.758,98.318,450.559z"/>
		</g>
		<g>
			<path style="fill:#263238;stroke:#263238;stroke-linecap:round;stroke-linejoin:round;stroke-miterlimit:10;" d="
				M147.547,454.612c0,0-1.123,0.802-0.321,1.925c0.802,1.123,3.69,1.123,5.295,1.123c1.604,0,9.948,0.16,9.948,0.16
				s12.194-0.16,13.959-0.642c1.765-0.481,1.925-1.444,1.284-1.925c-0.642-0.481-1.925-0.321-1.925-0.321s-5.295,0.642-8.824,0.161
				c-3.53-0.481-14.119-0.321-15.723-0.481C149.633,454.452,147.547,454.612,147.547,454.612z"/>
			<path style="fill:#FFFFFF;stroke:#263238;stroke-linecap:round;stroke-linejoin:round;stroke-miterlimit:10;" d="M141.873,427.27
				c0,0,5.354,16.111,5.514,16.914c0.16,0.802,0.321,2.728,0.321,4.974c0,2.246-1.444,4.653,1.123,6.257
				c2.567,1.604,9.627,0.481,13.156,0.802c3.53,0.321,6.097,0.16,10.91,0c4.813-0.16,6.578-2.728,5.455-3.209
				s-1.604,0.802-6.899-2.246c-5.295-3.048-14.6-7.541-14.921-8.504c-0.321-0.963-2.086-15.082-2.086-15.082L141.873,427.27z"/>
			<g>
				<path style="fill:#263238;" d="M165.996,447.784c-0.706,1.736-1.379,4.465-1.471,8.591c0.759,0.025,1.51,0.031,2.293,0.023
					c0.087-3.65,0.66-6.043,1.225-7.522C167.372,448.516,166.685,448.149,165.996,447.784z"/>
				<path style="fill:#263238;" d="M154.727,456.299c0.499-5.507,2.939-9.531,4.901-11.938c-0.801-0.451-1.49-0.856-2.013-1.196
					c-2.161,2.711-4.695,7.092-5.188,13.088C153.156,456.297,153.933,456.307,154.727,456.299z"/>
				<path style="fill:#263238;" d="M156.532,442.258c-0.05-0.15-0.135-0.617-0.242-1.298c-3.326,1.015-6.793,1.363-9.356,1.463
					c0.252,0.95,0.421,1.605,0.452,1.76c0.028,0.139,0.055,0.323,0.082,0.525c2.769-0.131,6.408-0.552,9.922-1.692
					C156.895,442.68,156.585,442.419,156.532,442.258z"/>
			</g>
		</g>
		<path style="fill:#FFFFFF;stroke:#263238;stroke-linecap:round;stroke-linejoin:round;stroke-miterlimit:10;" d="M129.26,201.135
			c0,0,0.758,6.821,2.179,9.758c1.421,2.937,4.832,5.305,3.979,11.369c-0.853,6.063-5.305,9.19-7.674,9.663
			c-2.368,0.474-3.979,0.379-3.979,0.379l0.474,6.727c0,0,6.642-0.289,11.575,1.081c4.932,1.37,13.015,4.11,16.577,4.658
			c3.562,0.548,17.258,1.249,19.998,4.264c2.74,3.014,2.055,5.754,0.411,7.398c-1.644,1.644-10.271,1.217-21.643,1.217
			c-11.371,0-11.371,0-11.371,0s2.603,6.713,2.192,11.508c-0.411,4.795-4.521,13.289-4.521,13.289s0.411,9.59,1.233,16.989
			c0.822,7.398,0.959,12.193,0.959,12.193s4.521,30.552,9.864,50.829c5.343,20.277,4.795,50.555,6.165,55.898
			c1.37,5.343,2.192,10.686,2.192,10.686s-13.152,2.603-17.811,2.877c-4.658,0.274-6.85,0.137-6.85,0.137l-2.74-26.716
			c0,0-5.343-35.484-5.617-36.032c-0.274-0.548-7.946-26.579-7.946-26.579l-4.795,46.307l-4.521,42.197L87.04,428.63l0.411-51.103
			c0,0-1.096-29.73-0.822-42.06c0.274-12.33,4.11-23.291,7.535-27.675c3.425-4.384,11.919-16.988,11.919-16.988l-1.507-8.631
			l-7.946-15.755c0,0-18.42,13.248-21.571,15.44s-6.987,0.548-7.946-4.658c-0.959-5.206,23.489-26.811,27.325-29.551
			c3.836-2.74,16.989-10.138,16.989-10.138l-0.548-6.576c0,0-4.658-1.507-6.302-5.206c-1.644-3.699,4.384-8.357,4.521-11.371
			s-2.192-8.494,1.644-9.864C114.578,203.121,129.26,201.135,129.26,201.135z"/>
		<g>
			<path style="fill:#0ea5e9;stroke:#263238;stroke-linecap:round;stroke-linejoin:round;stroke-miterlimit:10;" d="
				M133.211,432.055c0,0,2.192,0.137,6.85-0.137c4.658-0.274,17.811-2.877,17.811-2.877s-0.822-5.343-2.192-10.686
				c-1.37-5.343-0.822-35.621-6.165-55.898c-5.343-20.276-9.864-50.828-9.864-50.828s-0.137-4.795-0.959-12.193
				c-0.346-3.117-0.619-6.621-0.82-9.635l-31.913,0.281l0.126,0.723c0,0-8.494,12.604-11.919,16.988
				c-3.425,4.384-7.261,15.345-7.535,27.675c-0.274,12.33,0.822,42.06,0.822,42.06L87.04,428.63l20.551,2.603l4.521-42.197
				l4.795-46.307c0,0,7.672,26.031,7.946,26.579c0.274,0.548,5.617,36.032,5.617,36.032L133.211,432.055z"/>
			<g>
				
					<line style="fill:none;stroke:#263238;stroke-linecap:round;stroke-linejoin:round;stroke-miterlimit:10;" x1="127.068" y1="300.452" x2="136.853" y2="300.306"/>
				
					<line style="fill:none;stroke:#263238;stroke-linecap:round;stroke-linejoin:round;stroke-miterlimit:10;" x1="112.91" y1="300.663" x2="124.659" y2="300.488"/>
				
					<line style="fill:none;stroke:#263238;stroke-linecap:round;stroke-linejoin:round;stroke-miterlimit:10;" x1="131.493" y1="300.484" x2="133.816" y2="321.033"/>
				
					<line style="fill:none;stroke:#263238;stroke-linecap:round;stroke-linejoin:round;stroke-miterlimit:10;" x1="133.101" y1="303.165" x2="138.461" y2="327.287"/>
				
					<line style="fill:none;stroke:#263238;stroke-linecap:round;stroke-linejoin:round;stroke-miterlimit:10;" x1="111.302" y1="302.45" x2="106.656" y2="319.961"/>
				
					<line style="fill:none;stroke:#263238;stroke-linecap:round;stroke-linejoin:round;stroke-miterlimit:10;" x1="109.97" y1="323.99" x2="109.693" y2="326.751"/>
				
					<line style="fill:none;stroke:#263238;stroke-linecap:round;stroke-linejoin:round;stroke-miterlimit:10;" x1="111.838" y1="305.309" x2="110.301" y2="320.68"/>
			</g>
		</g>
		<g>
			<path style="fill:none;stroke:#263238;stroke-miterlimit:10;" d="M116.314,210.129c0,0,1.616-1.806,4.469-1.616"/>
			<path style="fill:none;stroke:#263238;stroke-miterlimit:10;" d="M126.488,206.326c0,0,1.141-1.331,2.567-1.331"/>
			<path style="fill:none;stroke:#263238;stroke-linecap:round;stroke-linejoin:round;stroke-miterlimit:10;" d="M136.168,210.336
				c0,2.686-2.178,4.864-4.864,4.864c-2.686,0-4.864-2.178-4.864-4.864c0-2.686,2.177-4.864,4.864-4.864
				C133.99,205.472,136.168,207.65,136.168,210.336z"/>
			<path style="fill:none;stroke:#263238;stroke-linecap:round;stroke-linejoin:round;stroke-miterlimit:10;" d="M123.895,221.617
				c0,0,2.877,1.781,5.891,0.548"/>
			<path style="fill:none;stroke:#263238;stroke-linecap:round;stroke-linejoin:round;stroke-miterlimit:10;" d="M124.854,214.424
				c0,2.686-2.177,4.864-4.864,4.864c-2.686,0-4.864-2.177-4.864-4.864c0-2.686,2.178-4.864,4.864-4.864
				C122.676,209.561,124.854,211.738,124.854,214.424z"/>
			<path style="fill:#263238;" d="M122.237,214.139c0.157,0.856-0.079,1.616-0.525,1.698c-0.447,0.082-0.935-0.546-1.092-1.402
				c-0.157-0.856,0.079-1.616,0.525-1.698C121.592,212.656,122.081,213.283,122.237,214.139z"/>
			<path style="fill:#263238;" d="M130.224,211.287c0.157,0.856-0.079,1.616-0.525,1.698c-0.447,0.082-0.936-0.546-1.092-1.402
				c-0.157-0.856,0.079-1.616,0.525-1.698C129.578,209.803,130.067,210.431,130.224,211.287z"/>
			
				<line style="fill:none;stroke:#263238;stroke-linecap:round;stroke-linejoin:round;stroke-miterlimit:10;" x1="115.4" y1="216.137" x2="108.139" y2="219.562"/>
			<path style="fill:none;stroke:#263238;stroke-linecap:round;stroke-linejoin:round;stroke-miterlimit:10;" d="M124.717,212.986
				c0,0,1.507-1.918,3.014,0.137"/>
			<path style="fill:none;stroke:#263238;stroke-linecap:round;stroke-linejoin:round;stroke-miterlimit:10;" d="M125.95,211.753
				c0,0,0.685,1.096,1.781,1.37c1.096,0.274,4.247,0.548,3.973,2.055c-0.274,1.507-1.507,2.74-2.192,2.877"/>
		</g>
		<path style="fill:#263238;stroke:#263238;stroke-linecap:round;stroke-linejoin:round;stroke-miterlimit:10;" d="M110.41,206.451
			c0,0,0.849,5.663,0.141,9.345c-0.708,3.681-3.823,5.097-3.398,8.07c0.425,2.973,4.955,7.362,4.955,7.362s-3.257,4.531-9.911,4.672
			c-6.654,0.142-12.176-2.407-12.176-13.592c0-11.185,1.557-23.786,9.628-27.75c8.07-3.964,23.22-2.407,26.618-1.133
			c3.398,1.274,7.221,5.663,5.947,7.787C130.94,203.337,116.073,207.159,110.41,206.451z"/>
		<path style="fill:#FFFFFF;stroke:#263238;stroke-linecap:round;stroke-linejoin:round;stroke-miterlimit:10;" d="M110.331,221.343
			c0,0-4.11-3.562-5.754-1.781c-1.644,1.781,0.411,4.932,1.918,6.713c1.507,1.781,3.425,0.685,3.973-0.137"/>
		<polygon style="fill:#263238;stroke:#263238;stroke-linecap:round;stroke-linejoin:round;stroke-miterlimit:10;" points="
			123.766,232.305 118.892,231.652 124.04,237.856 		"/>
		<path style="fill:#FFFFFF;stroke:#263238;stroke-linecap:round;stroke-linejoin:round;stroke-miterlimit:10;" d="M169.149,256.126
			c0,0-3.036-0.264-5.412-1.98c-2.376-1.716-3.3-6.995-5.411-10.823c-2.112-3.828-13.036-22.495-13.036-22.495s-1.584,0-3.036-0.924
			c-1.452-0.924-2.904-2.112-5.147-2.376c-2.244-0.264-3.432,0.132-4.224-0.132c-0.792-0.264-0.264-2.508,1.584-3.036
			c1.848-0.528,4.62,0.528,4.62,0.528s0.264-2.508-0.396-4.224c-0.66-1.716-2.904-3.696-4.488-4.62
			c-1.584-0.924-3.3-0.924-2.64-1.848c0.66-0.924,1.584-1.188,3.564-0.924c1.98,0.264,5.412,3.828,5.412,3.828
			s3.036,2.376,3.696,2.376c0.66,0,3.432-0.132,4.752,1.98c1.32,2.112,2.508,6.599,2.376,7.787c-0.132,1.188,0,2.244,0,2.244
			s14.884,17.347,18.052,20.383c3.168,3.036,5.28,10.031,4.752,11.747c-0.528,1.716-1.364,2.813-1.364,2.813"/>
		<path style="fill:#FFFFFF;stroke:#263238;stroke-linecap:round;stroke-linejoin:round;stroke-miterlimit:10;" d="M143.696,207.997
			c-0.133-0.309-0.38-0.587-0.665-0.799c-1.957-1.455-2.798,1.369-2.745,2.681c0.042,1.043,0.389,2.055,0.791,3.033
			c0.138,0.336,0.379,0.729,0.771,0.713c0.197-0.008,0.37-0.127,0.495-0.267c0.739-0.823,0.105-2.104,0.525-3.096
			c0.245-0.579,0.84-1.029,0.923-1.645C143.819,208.404,143.781,208.194,143.696,207.997z"/>
		<path style="fill:#FFFFFF;stroke:#263238;stroke-linecap:round;stroke-linejoin:round;stroke-miterlimit:10;" d="M146.337,208.142
			c-0.133-0.309-0.38-0.587-0.665-0.799c-1.957-1.455-2.798,1.369-2.745,2.681c0.042,1.043,0.389,2.055,0.791,3.033
			c0.138,0.335,0.379,0.729,0.771,0.713c0.197-0.008,0.37-0.127,0.495-0.267c0.739-0.823,0.105-2.104,0.525-3.096
			c0.245-0.579,0.84-1.029,0.923-1.645C146.46,208.548,146.421,208.339,146.337,208.142z"/>
		<path style="fill:#FFFFFF;stroke:#263238;stroke-linecap:round;stroke-linejoin:round;stroke-miterlimit:10;" d="M148.772,209.243
			c-0.12-0.279-0.343-0.531-0.601-0.723c-1.77-1.316-2.53,1.238-2.483,2.424c0.038,0.943,0.352,1.859,0.715,2.743
			c0.125,0.303,0.342,0.66,0.697,0.645c0.178-0.008,0.334-0.115,0.447-0.241c0.668-0.744,0.095-1.903,0.475-2.8
			c0.222-0.524,0.76-0.931,0.834-1.488C148.883,209.611,148.849,209.421,148.772,209.243z"/>
		<path style="fill:none;stroke:#263238;stroke-linecap:round;stroke-linejoin:round;stroke-miterlimit:10;" d="M144.89,216.224
			c0,0,0.285,2.283,1.047,3.33c0.761,1.046,2.569,1.142,2.569,1.142"/>
		<path style="fill:#0ea5e9;stroke:#263238;stroke-linecap:round;stroke-linejoin:round;stroke-miterlimit:10;" d="M137.458,282.447
			c0,0,4.11-8.494,4.521-13.289c0.411-4.795-2.192-11.508-2.192-11.508s-7.782-14.763-9.975-18.493
			c-1.087-0.082-2.097-0.122-2.955-0.139c1.019,1.589,2.21,3.553,2.437,4.386c0.411,1.505,3.832,10.127,3.832,10.127l-8.622,8.622
			l-13.411-6.158c0,0-0.821-6.432-3.284-11.085c-0.979-1.849-1.781-3.107-2.397-3.961c-0.568,0.329-1.151,0.667-1.744,1.014
			c0.443,0.591,0.958,1.37,1.541,2.4c2.326,4.105,2.874,12.454,2.874,12.454s-5.2,7.253-6.432,11.085
			c-0.597,1.859-1.323,3.488-1.912,4.677l4.839,9.595l0.719,4.116l32.218-2.667C137.477,282.878,137.458,282.447,137.458,282.447z"
			/>
		<g>
			<path style="fill:#FFFFFF;stroke:#263238;stroke-linecap:round;stroke-linejoin:round;stroke-miterlimit:10;" d="M72.483,268.939
				c0,0-7.272,5.766-7.39,8.826c-0.118,3.06,24.591,25.679,26.475,26.974c1.883,1.295,3.648,1.765,4.708,1.295
				c1.059-0.471,7.062-3.884,7.062-3.884s7.297-0.589,7.768-1.295c0.471-0.706,0.118-0.824-1.295-0.941s-3.178-0.471-3.531-0.471
				c-0.353,0-2.118-0.235-2.118-0.235s7.885-2.942,8.356-3.06c0.471-0.118,2.589-0.235,2.236-1.059
				c-0.353-0.824-2.589-2.001-4.59-2.589c-2.001-0.589-6.944-1.059-8.356,0c-1.412,1.059-7.062,7.65-7.062,7.65
				s-4.001-4.237-6.002-10.592c-2.001-6.355-9.762-15.204-12.352-16.97"/>
			<path style="fill:none;stroke:#263238;stroke-linecap:round;stroke-linejoin:round;stroke-miterlimit:10;" d="M103.808,296.736
				c0,0,2.942-1.059,5.061-1.765c2.118-0.706,3.766-1.295,4.825-0.588"/>
			<path style="fill:none;stroke:#263238;stroke-linecap:round;stroke-linejoin:round;stroke-miterlimit:10;" d="M102.866,294.5
				c0,0,4.237-1.765,7.297-2.001"/>
			<path style="fill:none;stroke:#263238;stroke-linecap:round;stroke-linejoin:round;stroke-miterlimit:10;" d="M102.16,293.323
				c0,0,2.354-1.412,3.413-1.53"/>
		</g>
	</g>
</g>
</svg>
